<svg xmlns="http://www.w3.org/2000/svg" width="208.429" height="156.502" viewBox="0 0 208.429 156.502">
  <g id="Grupo_371" data-name="Grupo 371" transform="translate(-1457.488 -142.909)">
    <g id="Grupo_356" data-name="Grupo 356" transform="translate(1457.488 264.557)">
      <path id="Caminho_582" data-name="Caminho 582" d="M1457.488,323.113a3.74,3.74,0,0,1,3.77-3.77h19.19a3.427,3.427,0,1,1,0,6.853h-15.42v7.294h13.217a3.427,3.427,0,1,1,0,6.853h-13.217v9.791a3.77,3.77,0,0,1-7.539,0Z" transform="translate(-1457.488 -319.049)" fill="#32afc0"/>
      <path id="Caminho_583" data-name="Caminho 583" d="M1501.084,322.688a3.769,3.769,0,1,1,7.538,0V350a3.769,3.769,0,1,1-7.538,0Z" transform="translate(-1470.953 -318.918)" fill="#32afc0"/>
      <path id="Caminho_584" data-name="Caminho 584" d="M1521.021,322.785a3.74,3.74,0,0,1,3.77-3.769h.783a4.671,4.671,0,0,1,3.917,2.2l14.539,19.091V322.638a3.72,3.72,0,1,1,7.441,0v27.267a3.74,3.74,0,0,1-3.77,3.769h-.245a4.67,4.67,0,0,1-3.916-2.2l-15.077-19.777v18.358a3.72,3.72,0,1,1-7.441,0Z" transform="translate(-1477.11 -318.918)" fill="#32afc0"/>
      <path id="Caminho_585" data-name="Caminho 585" d="M1573.612,323.113a3.74,3.74,0,0,1,3.77-3.77h9.6c10.77,0,18.21,7.392,18.21,17.035v.1c0,9.644-7.441,17.133-18.21,17.133h-9.6a3.74,3.74,0,0,1-3.77-3.77Zm13.365,23.693c6.168,0,10.328-4.161,10.328-10.231v-.1c0-6.07-4.161-10.329-10.328-10.329h-5.826v20.658Z" transform="translate(-1493.354 -319.049)" fill="#32afc0"/>
      <g id="Grupo_355" data-name="Grupo 355" transform="translate(116.222 0.318)">
        <path id="Caminho_586" data-name="Caminho 586" d="M1625.646,321.336a1.954,1.954,0,0,1,1.91-1.958h10.916c7.735,0,12.826,4.112,12.826,10.868v.1c0,7.392-6.169,11.21-13.462,11.21h-8.322v10.378a1.934,1.934,0,1,1-3.867,0Zm12.336,16.693c5.678,0,9.4-3.035,9.4-7.538v-.1c0-4.9-3.672-7.441-9.2-7.441h-8.665v15.077Z" transform="translate(-1625.646 -319.378)" fill="#ffbd1d"/>
        <path id="Caminho_587" data-name="Caminho 587" d="M1672.23,351.687V321.336a1.954,1.954,0,0,1,1.909-1.958h21.294a1.762,1.762,0,1,1,0,3.525H1676.1v11.7h17.134a1.787,1.787,0,0,1,1.762,1.762,1.755,1.755,0,0,1-1.762,1.762H1676.1V350.12h19.582a1.762,1.762,0,1,1,0,3.525h-21.54A1.954,1.954,0,0,1,1672.23,351.687Z" transform="translate(-1640.034 -319.378)" fill="#ffbd1d"/>
        <path id="Caminho_588" data-name="Caminho 588" d="M1727.191,322.952h-9.938a1.8,1.8,0,0,1-1.811-1.762,1.84,1.84,0,0,1,1.811-1.811h23.791a1.84,1.84,0,0,1,1.812,1.811,1.8,1.8,0,0,1-1.812,1.762h-9.937v28.98a1.958,1.958,0,1,1-3.916,0Z" transform="translate(-1653.38 -319.378)" fill="#ffbd1d"/>
        <path id="Caminho_589" data-name="Caminho 589" d="M1755.318,363.5a1.972,1.972,0,0,0-1.74,2.859,1.969,1.969,0,1,0,1.74-2.859Z" transform="translate(-1665.093 -333.005)" fill="#ffbd1d"/>
      </g>
    </g>
    <g id="Grupo_370" data-name="Grupo 370" transform="translate(1521.701 142.909)">
      <g id="Grupo_359" data-name="Grupo 359" transform="translate(18.461 25.178)">
        <g id="Grupo_358" data-name="Grupo 358">
          <g id="Grupo_357" data-name="Grupo 357">
            <ellipse id="Elipse_239" data-name="Elipse 239" cx="2.695" cy="3.337" rx="2.695" ry="3.337" transform="matrix(0.844, -0.537, 0.537, 0.844, 0, 2.893)" fill="#ffbd1d"/>
          </g>
        </g>
      </g>
      <g id="Grupo_361" data-name="Grupo 361" transform="translate(55.137 23.151)">
        <g id="Grupo_360" data-name="Grupo 360">
          <ellipse id="Elipse_240" data-name="Elipse 240" cx="3.337" cy="2.695" rx="3.337" ry="2.695" transform="translate(0 5.733) rotate(-59.212)" fill="#ffbd1d"/>
        </g>
      </g>
      <g id="Grupo_363" data-name="Grupo 363" transform="translate(27.538 14.388)">
        <g id="Grupo_362" data-name="Grupo 362">
          <ellipse id="Elipse_241" data-name="Elipse 241" cx="4.138" cy="5.124" rx="4.138" ry="5.124" transform="matrix(0.934, -0.358, 0.358, 0.934, 0, 2.959)" fill="#ffbd1d"/>
        </g>
      </g>
      <g id="Grupo_365" data-name="Grupo 365" transform="translate(42.262 14.712)">
        <g id="Grupo_364" data-name="Grupo 364">
          <ellipse id="Elipse_242" data-name="Elipse 242" cx="5.124" cy="4.138" rx="5.124" ry="4.138" transform="translate(0 10.051) rotate(-78.776)" fill="#ffbd1d"/>
        </g>
      </g>
      <g id="Grupo_367" data-name="Grupo 367">
        <g id="Grupo_366" data-name="Grupo 366">
          <path id="Caminho_590" data-name="Caminho 590" d="M1579.362,209Z" transform="translate(-1559.342 -163.323)" fill="#32afc0"/>
          <path id="Caminho_591" data-name="Caminho 591" d="M1591.317,240.944a14.054,14.054,0,0,1-2.929-1.735,60.335,60.335,0,0,1-10.8-10.194c-.916-1.109-1.825-2.677-1.037-3.883.972-1.486,3.322-.713,4.658.457,2.5,2.19,4.289,5.3,7.3,6.71a9.2,9.2,0,0,0,9.536-.961,44.758,44.758,0,0,0,8.251-8.112c2.2-2.659,4.7-5.583,7.065-8.256,4.745-5.356,9.2-10.9,12-17.565,5.672-13.47,1.9-30.306-8.879-40.172s-27.794-12.148-40.857-5.591-21.385,21.462-20.245,36.034c.494,6.316,2.758,12.7,7.349,17.068a20.918,20.918,0,0,0,20.871,4.377c2.828-.987,5.547-2.6,8.542-2.6,4.246,0,8.049,2.988,12.334,1.668,3.99-1.229,6.893-5.265,7.375-9.326.61-5.151-1.9-10.259-5.415-14.072a20.934,20.934,0,0,0-9.749-6.244c-7.923-2.123-16.783,2.417-20.672,9.639a10.4,10.4,0,0,1-1.982,3.014,2.687,2.687,0,0,1-3.315.395c-1.182-.935-.853-2.8-.267-4.188a23.765,23.765,0,0,1,14.441-13.013,23.138,23.138,0,0,1,13.533-.366,28.414,28.414,0,0,1,18.465,20.116,17.774,17.774,0,0,1-2.484,13.494c-2.976,4.3-7.681,6.119-12.8,5.831-5.707-.321-9.36-2.964-14.991-.368a18.871,18.871,0,0,1-7.592,2.136,30.447,30.447,0,0,1-7.651-.674,25.413,25.413,0,0,1-12.175-6.238c-5.593-5.233-8.554-12.985-8.8-23.04-.217-8.837,3.34-19.116,9.281-26.827,5.293-6.869,14.976-15.14,31.05-15.534a44.628,44.628,0,0,1,10.561.959,38.82,38.82,0,0,1,21.194,12.675c10.062,11.64,13.5,28.166,7.534,42.541-3.361,8.1-9.29,14.826-15.115,21.386-5.45,6.137-10.7,12.495-16.549,18.257a8.325,8.325,0,0,1-3.978,2.593A5.34,5.34,0,0,1,1591.317,240.944Z" transform="translate(-1550.396 -142.909)" fill="#32afc0"/>
        </g>
      </g>
      <g id="Grupo_369" data-name="Grupo 369" transform="translate(29.163 43.16)">
        <g id="Grupo_368" data-name="Grupo 368">
          <path id="Caminho_592" data-name="Caminho 592" d="M1620.513,216.23l-.017-.109a17.982,17.982,0,0,0-5.886-10.765c-2.3,9.395-14.388,11.35-21.93,11.635a4.457,4.457,0,0,0,5.891,5.139l3.3-1.046a11.787,11.787,0,0,1,9.3.282l1.783.828A5.448,5.448,0,0,0,1620.513,216.23Z" transform="translate(-1592.591 -205.356)" fill="#b9e0eb"/>
        </g>
      </g>
    </g>
  </g>
</svg>
